<svg id="Capa_1" enable-background="new 0 0 512 512" height="220px" viewBox="0 0 512 512" width="220px" xmlns="http://www.w3.org/2000/svg"><g><circle cx="256" cy="256" fill="#8BC34A" r="256"/><path d="m512 256h-512c0 141.385 114.615 256 256 256s256-114.615 256-256z" fill="#8BC34A"/><g><g><path d="m301.175 351.663c-2.464 0-4.964-.608-7.271-1.891l-110.378-61.32c-4.762-2.646-7.715-7.665-7.715-13.112v-38.68c0-5.447 2.954-10.467 7.715-13.112l110.378-61.32c7.244-4.022 16.374-1.414 20.397 5.828 4.023 7.241 1.414 16.373-5.828 20.396l-102.663 57.034v21.027l102.663 57.034c7.242 4.023 9.851 13.155 5.828 20.396-2.741 4.936-7.855 7.72-13.126 7.72z" fill="#ffffff"/></g><g><path d="m308.474 323.548-102.663-57.034v-10.514h-30v19.34c0 5.447 2.954 10.467 7.715 13.112l110.378 61.32c2.307 1.282 4.807 1.891 7.271 1.891 5.271 0 10.385-2.784 13.126-7.719 4.024-7.241 1.414-16.373-5.827-20.396z" fill="#ffffff"/></g><path d="m156 311c-30.327 0-55-24.673-55-55s24.673-55 55-55 55 24.673 55 55-24.673 55-55 55z" fill="#ffffff"/><path d="m336 411c-30.327 0-55-24.673-55-55s24.673-55 55-55 55 24.673 55 55-24.673 55-55 55z" fill="#ffffff"/><path d="m336 211c-30.327 0-55-24.673-55-55s24.673-55 55-55 55 24.673 55 55-24.673 55-55 55z" fill="#ffffff"/><g><g><path d="m156 311c30.327 0 55-24.673 55-55h-110c0 30.327 24.673 55 55 55z" fill="#ffffff"/></g></g></g></g></svg>